<svg width="241" height="330" viewBox="0 0 241 330" fill="none" xmlns="http://www.w3.org/2000/svg">
<mask id="path-1-inside-1_5_2" fill="white">
<path fill-rule="evenodd" clip-rule="evenodd" d="M27 0C12.0883 0 0 12.0883 0 27V152C0 166.912 12.0883 179 27 179H62V303C62 317.912 74.0883 330 89 330H214C228.912 330 241 317.912 241 303V27C241 12.0883 228.912 0 214 0H152H89H27Z"/>
</mask>
<path fill-rule="evenodd" clip-rule="evenodd" d="M27 0C12.0883 0 0 12.0883 0 27V152C0 166.912 12.0883 179 27 179H62V303C62 317.912 74.0883 330 89 330H214C228.912 330 241 317.912 241 303V27C241 12.0883 228.912 0 214 0H152H89H27Z" fill="white" fill-opacity="0.5"/>
<path d="M62 179H68V173H62V179ZM6 27C6 15.402 15.402 6 27 6V-6C8.7746 -6 -6 8.77461 -6 27H6ZM6 152V27H-6V152H6ZM27 173C15.402 173 6 163.598 6 152H-6C-6 170.225 8.77461 185 27 185V173ZM62 173H27V185H62V173ZM68 303V179H56V303H68ZM89 324C77.402 324 68 314.598 68 303H56C56 321.225 70.7746 336 89 336V324ZM214 324H89V336H214V324ZM235 303C235 314.598 225.598 324 214 324V336C232.225 336 247 321.225 247 303H235ZM235 27V303H247V27H235ZM214 6C225.598 6 235 15.402 235 27H247C247 8.7746 232.225 -6 214 -6V6ZM152 6H214V-6H152V6ZM89 6H152V-6H89V6ZM27 6H89V-6H27V6Z" fill="white" mask="url(#path-1-inside-1_5_2)"/>
<path d="M39.6364 106V59.4545H67.7273V64.4545H45.2727V80.1818H66.2727V85.1818H45.2727V101H68.0909V106H39.6364ZM82.5227 85V106H77.1591V71.0909H82.3409V76.5455H82.7955C83.6136 74.7727 84.8561 73.3485 86.5227 72.2727C88.1894 71.1818 90.3409 70.6364 92.9773 70.6364C95.3409 70.6364 97.4091 71.1212 99.1818 72.0909C100.955 73.0455 102.333 74.5 103.318 76.4545C104.303 78.3939 104.795 80.8485 104.795 83.8182V106H99.4318V84.1818C99.4318 81.4394 98.7197 79.303 97.2955 77.7727C95.8712 76.2273 93.9167 75.4545 91.4318 75.4545C89.7197 75.4545 88.1894 75.8258 86.8409 76.5682C85.5076 77.3106 84.4545 78.3939 83.6818 79.8182C82.9091 81.2424 82.5227 82.9697 82.5227 85ZM129.778 71.0909V75.6364H111.688V71.0909H129.778ZM116.96 62.7273H122.324V96C122.324 97.5152 122.544 98.6515 122.983 99.4091C123.438 100.152 124.013 100.652 124.71 100.909C125.422 101.152 126.172 101.273 126.96 101.273C127.551 101.273 128.036 101.242 128.415 101.182C128.794 101.106 129.097 101.045 129.324 101L130.415 105.818C130.051 105.955 129.544 106.091 128.892 106.227C128.241 106.379 127.415 106.455 126.415 106.455C124.9 106.455 123.415 106.129 121.96 105.477C120.521 104.826 119.324 103.833 118.369 102.5C117.43 101.167 116.96 99.4848 116.96 97.4545V62.7273ZM137.847 106V71.0909H143.028V76.3636H143.392C144.028 74.6364 145.18 73.2348 146.847 72.1591C148.513 71.0833 150.392 70.5455 152.483 70.5455C152.877 70.5455 153.369 70.553 153.96 70.5682C154.551 70.5833 154.998 70.6061 155.301 70.6364V76.0909C155.119 76.0455 154.703 75.9773 154.051 75.8864C153.415 75.7803 152.741 75.7273 152.028 75.7273C150.331 75.7273 148.816 76.0833 147.483 76.7955C146.165 77.4924 145.119 78.4621 144.347 79.7045C143.589 80.9318 143.21 82.3333 143.21 83.9091V106H137.847ZM175.233 106.727C171.869 106.727 168.968 105.985 166.528 104.5C164.104 103 162.233 100.909 160.915 98.2273C159.612 95.5303 158.96 92.3939 158.96 88.8182C158.96 85.2424 159.612 82.0909 160.915 79.3636C162.233 76.6212 164.066 74.4848 166.415 72.9545C168.778 71.4091 171.536 70.6364 174.688 70.6364C176.506 70.6364 178.301 70.9394 180.074 71.5455C181.847 72.1515 183.46 73.1364 184.915 74.5C186.369 75.8485 187.528 77.6364 188.392 79.8636C189.256 82.0909 189.688 84.8333 189.688 88.0909V90.3636H162.778V85.7273H184.233C184.233 83.7576 183.839 82 183.051 80.4545C182.278 78.9091 181.172 77.6894 179.733 76.7955C178.309 75.9015 176.627 75.4545 174.688 75.4545C172.551 75.4545 170.703 75.9848 169.142 77.0455C167.597 78.0909 166.407 79.4545 165.574 81.1364C164.741 82.8182 164.324 84.6212 164.324 86.5455V89.6364C164.324 92.2727 164.778 94.5076 165.688 96.3409C166.612 98.1591 167.892 99.5455 169.528 100.5C171.165 101.439 173.066 101.909 175.233 101.909C176.642 101.909 177.915 101.712 179.051 101.318C180.203 100.909 181.195 100.303 182.028 99.5C182.862 98.6818 183.506 97.6667 183.96 96.4545L189.142 97.9091C188.597 99.6667 187.68 101.212 186.392 102.545C185.104 103.864 183.513 104.894 181.619 105.636C179.725 106.364 177.597 106.727 175.233 106.727ZM197.847 106V71.0909H203.028V76.3636H203.392C204.028 74.6364 205.18 73.2348 206.847 72.1591C208.513 71.0833 210.392 70.5455 212.483 70.5455C212.877 70.5455 213.369 70.553 213.96 70.5682C214.551 70.5833 214.998 70.6061 215.301 70.6364V76.0909C215.119 76.0455 214.703 75.9773 214.051 75.8864C213.415 75.7803 212.741 75.7273 212.028 75.7273C210.331 75.7273 208.816 76.0833 207.483 76.7955C206.165 77.4924 205.119 78.4621 204.347 79.7045C203.589 80.9318 203.21 82.3333 203.21 83.9091V106H197.847Z" fill="white"/>
</svg>
