<svg width="179" height="179" viewBox="0 0 179 179" fill="none" xmlns="http://www.w3.org/2000/svg">
<rect x="3" y="3" width="173" height="173" rx="24" fill="white" fill-opacity="0.5" stroke="white" stroke-width="6"/>
<path d="M87.4205 99.9545H94.6648L100.737 107.945L102.335 110.075L111.391 122.114H104.146L98.1804 114.124L96.6889 112.099L87.4205 99.9545ZM113.628 89.7273C113.628 95.4801 112.589 100.452 110.512 104.642C108.434 108.832 105.585 112.064 101.962 114.337C98.3402 116.609 94.2031 117.746 89.5511 117.746C84.8991 117.746 80.7621 116.609 77.1399 114.337C73.5178 112.064 70.668 108.832 68.5906 104.642C66.5131 100.452 65.4744 95.4801 65.4744 89.7273C65.4744 83.9744 66.5131 79.0028 68.5906 74.8125C70.668 70.6222 73.5178 67.3906 77.1399 65.1179C80.7621 62.8452 84.8991 61.7088 89.5511 61.7088C94.2031 61.7088 98.3402 62.8452 101.962 65.1179C105.585 67.3906 108.434 70.6222 110.512 74.8125C112.589 79.0028 113.628 83.9744 113.628 89.7273ZM107.236 89.7273C107.236 85.0043 106.446 81.0181 104.865 77.7688C103.303 74.5195 101.181 72.0604 98.5 70.3913C95.8366 68.7223 92.8537 67.8878 89.5511 67.8878C86.2486 67.8878 83.2567 68.7223 80.5756 70.3913C77.9123 72.0604 75.7905 74.5195 74.2102 77.7688C72.6477 81.0181 71.8665 85.0043 71.8665 89.7273C71.8665 94.4503 72.6477 98.4364 74.2102 101.686C75.7905 104.935 77.9123 107.394 80.5756 109.063C83.2567 110.732 86.2486 111.567 89.5511 111.567C92.8537 111.567 95.8366 110.732 98.5 109.063C101.181 107.394 103.303 104.935 104.865 101.686C106.446 98.4364 107.236 94.4503 107.236 89.7273Z" fill="white"/>
</svg>
