<svg width="179" height="179" viewBox="0 0 179 179" fill="none" xmlns="http://www.w3.org/2000/svg">
<rect x="3" y="3" width="173" height="173" rx="24" fill="white" fill-opacity="0.5" stroke="white" stroke-width="6"/>
<path d="M86.4375 117H69.6051V62.4545H87.1832C92.4744 62.4545 97.0021 63.5465 100.766 65.7305C104.531 67.8967 107.416 71.0128 109.422 75.0788C111.429 79.1271 112.432 83.9744 112.432 89.6207C112.432 95.3026 111.42 100.194 109.396 104.296C107.371 108.38 104.424 111.522 100.553 113.724C96.6825 115.908 91.9773 117 86.4375 117ZM76.2102 111.141H86.0114C90.5213 111.141 94.2589 110.271 97.2241 108.531C100.189 106.79 102.4 104.314 103.856 101.1C105.312 97.886 106.04 94.0597 106.04 89.6207C106.04 85.2173 105.321 81.4265 103.882 78.2482C102.444 75.0522 100.296 72.6019 97.4371 70.8974C94.5785 69.1751 91.0185 68.3139 86.7571 68.3139H76.2102V111.141Z" fill="white"/>
</svg>
