<svg width="179" height="179" viewBox="0 0 179 179" fill="none" xmlns="http://www.w3.org/2000/svg">
<rect x="3" y="3" width="173" height="173" rx="24" fill="white" fill-opacity="0.5" stroke="white" stroke-width="6"/>
<path d="M102.435 76.0909C102.115 73.392 100.819 71.2969 98.5462 69.8054C96.2734 68.3139 93.4858 67.5682 90.1832 67.5682C87.7685 67.5682 85.6555 67.9588 83.8445 68.7401C82.0511 69.5213 80.6484 70.5955 79.6364 71.9627C78.642 73.3299 78.1449 74.8835 78.1449 76.6236C78.1449 78.0795 78.4911 79.3313 79.1836 80.3789C79.8938 81.4087 80.7994 82.2699 81.9002 82.9624C83.0011 83.6371 84.1552 84.1964 85.3626 84.6403C86.57 85.0664 87.6797 85.4126 88.6918 85.679L94.2315 87.1705C95.652 87.5433 97.2322 88.0582 98.9723 88.7152C100.73 89.3722 102.408 90.2688 104.006 91.4052C105.622 92.5238 106.953 93.962 108.001 95.7198C109.049 97.4776 109.572 99.6349 109.572 102.192C109.572 105.139 108.8 107.803 107.255 110.182C105.728 112.561 103.491 114.452 100.544 115.855C97.614 117.257 94.054 117.959 89.8636 117.959C85.9574 117.959 82.5749 117.328 79.7163 116.068C76.8754 114.807 74.6381 113.049 73.0046 110.794C71.3888 108.539 70.4744 105.92 70.2614 102.938H77.0795C77.2571 104.997 77.9496 106.702 79.157 108.051C80.3821 109.383 81.9268 110.377 83.7912 111.034C85.6733 111.673 87.6974 111.993 89.8636 111.993C92.3849 111.993 94.6488 111.585 96.6552 110.768C98.6616 109.933 100.251 108.779 101.423 107.305C102.594 105.814 103.18 104.074 103.18 102.085C103.18 100.274 102.674 98.8004 101.662 97.6641C100.65 96.5277 99.3185 95.6044 97.6673 94.8942C96.016 94.1839 94.2315 93.5625 92.3139 93.0298L85.6023 91.1122C81.3409 89.8871 77.9673 88.1381 75.4815 85.8654C72.9957 83.5927 71.7528 80.6186 71.7528 76.9432C71.7528 73.8892 72.5785 71.2259 74.2298 68.9531C75.8988 66.6626 78.136 64.8871 80.9414 63.6264C83.7646 62.348 86.9162 61.7088 90.3963 61.7088C93.9119 61.7088 97.0369 62.3391 99.7713 63.5998C102.506 64.8427 104.672 66.5472 106.27 68.7134C107.886 70.8796 108.738 73.3388 108.827 76.0909H102.435Z" fill="white"/>
</svg>
